# xmcd CD database file
#
# Track frame offsets:
#	150
#	16523
#	28227
#	39731
#	57240
#	72143
#	88543
#	106041
#	130884
#	155851
#	173405
#	191141
#	209385
#
# Disc length: 2987 seconds
#
# Revision: 5
# Processed by: cddbd v1.5.2PL0 Copyright (c) Steve Scherf et al.
# Submitted via: CDex 1.70beta3
#
DISCID=a90ba90d
DTITLE=NECA-30163 - 金色のガッシュベル!! Collection of Golden Songs3
DYEAR=2006
DGENRE=Anime
TTITLE0=見えない翼 [谷本貴義][金色のガッシュベル!! OP3]
TTITLE1=ベリーメロン～私の心をつかんだ良いメロン～ [ビクトリーム (若本規夫)]
TTITLE2=ウマゴンロック [ガッシュ・ベル (大谷育江)＆ウマゴン (こおろぎさとみ)＆カフカ・サンビーム (柳田ほづみ)]
TTITLE3=無敵フォルゴレ [パルコ・フォルゴレ (高橋広樹)＆キャンチョメ (菊池正美)]
TTITLE4=もん・もん [モンモン先生 (安達まり)]
TTITLE5=裸足の王様 [田光マコト]
TTITLE6=君にこの声が 届きますように [谷本貴義][金色のガッシュベル!! OP2]
TTITLE7=約束の星 [rino]
TTITLE8=ガッシュベル体操～やさしい王様になるために～ [ガッシュ・ベル (大谷育江)＆ウマゴン (こおろぎさとみ)]
TTITLE9=ワカマカダンス [ワイフ (寺田はるひ)]
TTITLE10=チチをもげ!～モアもげ!ヴァージョン～ [パルコ・フォルゴレ (高橋広樹)]
TTITLE11=見えない翼～ガッシュバージョン～ [ガッシュ・ベル (大谷育江)]
TTITLE12=カサブタ [千綿ヒデノリ][金色のガッシュベル!! OP1 EDL]
EXTD=YEAR: 2006
EXTT0=
EXTT1=
EXTT2=
EXTT3=
EXTT4=
EXTT5=
EXTT6=
EXTT7=
EXTT8=
EXTT9=
EXTT10=
EXTT11=
EXTT12=
PLAYORDER=
